@startuml MAINTENANCE_DIFORM_Diagram

entity "MAINTENANCE DIFORM" as MAINTENANCE_DIFORM {
  _id : objectId
  plantId : objectId
  form : object
  formConfiguration : object
}

entity "FORM" as FORM {
  formName : string
  timeInputRequired : boolean
  clearSection : boolean
  lastUpdated : string
  questionBank : object
  calculatedAt : string
}

entity "QUESTION BANK" as QUESTION_BANK {
  Blower1 : object
  Blower2 : object
  Blower3 : object
  Pump1 : object
  Pump2 : object
  Pump3 : object
  Pump4 : object
  Pump5 : object
  Pump6 : object
  Pump7 : object
  Pump8 : object
  Pump9 : object
  Pump10 : object
  Pump11 : object
  Pump12 : object
  Pump13 : object
  Pump14 : object
  Header1 : object
  Flowmeter1 : object
  Flowmeter2 : object
  Flowmeter3 : object
  Valves1 : object
  Bar Screen Chamber1 : object
  Filter Press1 : object
  Softner1 : object
  MGF1 : object
  ACF1 : object
}

entity "BLOWER1" as BLOWER1 {
  nickName : string
  questions : list
}

entity "QUESTIONS" as QUESTIONS {
  title : string
  type : string
  checked : boolean
  sensorTypeAbr : string
  sensorType : string
  sensorTag : string
  sensorNickName : unknown
  currentValue : unknown
  previousValue : boolean
  prevTimeDataStored : string
  time : string
  sensorId : objectId
}

entity "BLOWER2" as BLOWER2 {
  nickName : string
  questions : list
}

entity "BLOWER3" as BLOWER3 {
  nickName : string
  questions : list
}

entity "PUMP1" as PUMP1 {
  nickName : string
  questions : list
}

entity "PUMP2" as PUMP2 {
  nickName : string
  questions : list
}

entity "PUMP3" as PUMP3 {
  nickName : string
  questions : list
}

entity "PUMP4" as PUMP4 {
  nickName : string
  questions : list
}

entity "PUMP5" as PUMP5 {
  nickName : string
  questions : list
}

entity "PUMP6" as PUMP6 {
  nickName : string
  questions : list
}

entity "PUMP7" as PUMP7 {
  nickName : string
  questions : list
}

entity "PUMP8" as PUMP8 {
  nickName : string
  questions : list
}

entity "PUMP9" as PUMP9 {
  nickName : string
  questions : list
}

entity "PUMP10" as PUMP10 {
  nickName : string
  questions : list
}

entity "PUMP11" as PUMP11 {
  nickName : string
  questions : list
}

entity "PUMP12" as PUMP12 {
  nickName : string
  questions : list
}

entity "PUMP13" as PUMP13 {
  nickName : string
  questions : list
}

entity "PUMP14" as PUMP14 {
  nickName : string
  questions : list
}

entity "HEADER1" as HEADER1 {
  nickName : unknown
  questions : list
}

entity "FLOWMETER1" as FLOWMETER1 {
  nickName : string
  questions : list
}

entity "FLOWMETER2" as FLOWMETER2 {
  nickName : string
  questions : list
}

entity "FLOWMETER3" as FLOWMETER3 {
  nickName : string
  questions : list
}

entity "VALVES1" as VALVES1 {
  nickName : string
  questions : list
}

entity "BAR SCREEN CHAMBER1" as BAR_SCREEN_CHAMBER1 {
  nickName : unknown
  questions : list
}

entity "FILTER PRESS1" as FILTER_PRESS1 {
  nickName : unknown
  questions : list
}

entity "SOFTNER1" as SOFTNER1 {
  nickName : unknown
  questions : list
}

entity "MGF1" as MGF1 {
  nickName : unknown
  questions : list
}

entity "ACF1" as ACF1 {
  nickName : unknown
  questions : list
}

entity "FORM CONFIGURATION" as FORM_CONFIGURATION {
  isFormConfigured : boolean
}

' // Relationships
MAINTENANCE_DIFORM ||--|| FORM : has_form
FORM ||--|| QUESTION_BANK : has_questionBank
QUESTION_BANK ||--|| BLOWER1 : has_Blower1
BLOWER1 ||--o{ QUESTIONS : has_questions
QUESTION_BANK ||--|| BLOWER2 : has_Blower2
BLOWER2 ||--o{ QUESTIONS : has_questions
QUESTION_BANK ||--|| BLOWER3 : has_Blower3
BLOWER3 ||--o{ QUESTIONS : has_questions
QUESTION_BANK ||--|| PUMP1 : has_Pump1
PUMP1 ||--o{ QUESTIONS : has_questions
QUESTION_BANK ||--|| PUMP2 : has_Pump2
PUMP2 ||--o{ QUESTIONS : has_questions
QUESTION_BANK ||--|| PUMP3 : has_Pump3
PUMP3 ||--o{ QUESTIONS : has_questions
QUESTION_BANK ||--|| PUMP4 : has_Pump4
PUMP4 ||--o{ QUESTIONS : has_questions
QUESTION_BANK ||--|| PUMP5 : has_Pump5
PUMP5 ||--o{ QUESTIONS : has_questions
QUESTION_BANK ||--|| PUMP6 : has_Pump6
PUMP6 ||--o{ QUESTIONS : has_questions
QUESTION_BANK ||--|| PUMP7 : has_Pump7
PUMP7 ||--o{ QUESTIONS : has_questions
QUESTION_BANK ||--|| PUMP8 : has_Pump8
PUMP8 ||--o{ QUESTIONS : has_questions
QUESTION_BANK ||--|| PUMP9 : has_Pump9
PUMP9 ||--o{ QUESTIONS : has_questions
QUESTION_BANK ||--|| PUMP10 : has_Pump10
PUMP10 ||--o{ QUESTIONS : has_questions
QUESTION_BANK ||--|| PUMP11 : has_Pump11
PUMP11 ||--o{ QUESTIONS : has_questions
QUESTION_BANK ||--|| PUMP12 : has_Pump12
PUMP12 ||--o{ QUESTIONS : has_questions
QUESTION_BANK ||--|| PUMP13 : has_Pump13
PUMP13 ||--o{ QUESTIONS : has_questions
QUESTION_BANK ||--|| PUMP14 : has_Pump14
PUMP14 ||--o{ QUESTIONS : has_questions
QUESTION_BANK ||--|| HEADER1 : has_Header1
HEADER1 ||--o{ QUESTIONS : has_questions
QUESTION_BANK ||--|| FLOWMETER1 : has_Flowmeter1
FLOWMETER1 ||--o{ QUESTIONS : has_questions
QUESTION_BANK ||--|| FLOWMETER2 : has_Flowmeter2
FLOWMETER2 ||--o{ QUESTIONS : has_questions
QUESTION_BANK ||--|| FLOWMETER3 : has_Flowmeter3
FLOWMETER3 ||--o{ QUESTIONS : has_questions
QUESTION_BANK ||--|| VALVES1 : has_Valves1
VALVES1 ||--o{ QUESTIONS : has_questions
QUESTION_BANK ||--|| BAR_SCREEN_CHAMBER1 : has_Bar Screen Chamber1
BAR_SCREEN_CHAMBER1 ||--o{ QUESTIONS : has_questions
QUESTION_BANK ||--|| FILTER_PRESS1 : has_Filter Press1
FILTER_PRESS1 ||--o{ QUESTIONS : has_questions
QUESTION_BANK ||--|| SOFTNER1 : has_Softner1
SOFTNER1 ||--o{ QUESTIONS : has_questions
QUESTION_BANK ||--|| MGF1 : has_MGF1
MGF1 ||--o{ QUESTIONS : has_questions
QUESTION_BANK ||--|| ACF1 : has_ACF1
ACF1 ||--o{ QUESTIONS : has_questions
MAINTENANCE_DIFORM ||--|| FORM_CONFIGURATION : has_formConfiguration
@enduml