@startuml skill_managements_Diagram

entity "skill managements" as skill_managements {
  _id : ObjectId
  isArchived : boolean
  name : string
  description : string
  skillType : string
  skillLevel : string
  createdBy : ObjectId
  createdAt : object
  updatedAt : object
  __v : int
}

entity "createdAt" as createdAt {
}

entity "updatedAt" as updatedAt {
}


' Relationships
skill_managements ||--|| createdAt : has_createdAt
skill_managements ||--|| updatedAt : has_updatedAt
@enduml