@startuml taskCounts_Diagram

entity "taskCounts" as taskCounts {
  _id : ObjectId
  For : string
  count : object
}

entity "count" as count {
  618b5c42cf12270d003549b4 : object
  62136d7fc435773ec77ec4fc : object
  620cf68a15f5530706eef968 : object
  618b8d07cf12270d003549d2 : object
  62d6901b3eb0cb08a16a73cf : object
  62a075f5717043068c8fc65b : object
  62c7d90fe88eb11e6362b33c : object
  63838168547b8c18e1a3b7c1 : object
  63838083547b8c18e1a3b7bd : object
  63dbaed0a09252522dd4339c : object
  642a6e5439658f0a6001e518 : object
  63f35c923ffd5468072efaa2 : object
  64510316bf14bbb5792b53c9 : object
  64882501bf14bbb5792ba997 : object
  64a2cff6e559d86c2309530e : object
  647054b7bf14bbb5792b8bf6 : object
  64818018bf14bbb5792ba0f7 : object
  6539fa4df16f206464740b28 : object
  6594fba34df1e220fc2672f4 : object
  65dc71673c091cada3908577 : object
  65d4e5103c091cada390794a : object
  65e16b443c091cada3908c79 : object
  658efc6fbb92db04c79528f9 : object
  65e7590fd75a9de074f43ef2 : object
  65eb3a5cd75a9de074f442ab : object
  65c0ab709d70ba04190e07ca : object
  65c1fe789d70ba04190e0bcd : object
  66151539c8b2c9c00c4fee68 : object
  65fc6984959a296577a79cb3 : object
  660fa001c8b2c9c00c4fe6a2 : object
  6623022625ff8fcc86dc317f : object
  661190c5c8b2c9c00c4fea0f : object
  65abb782ca86713f28b82429 : object
  647adf30bf14bbb5792b98a1 : object
  65a0d52eca86713f28b8182d : object
  663c7feec09cc51adba6ead6 : object
  662a4e1f6f629e887f2c2826 : object
  66824494b7c8afc6677f3d81 : object
  617657efb95cf93d546ef364 : object
  6328165c48b60c2d9c3ac3c1 : object
  6641c6d9c09cc51adba6f3c3 : object
  6641d159c09cc51adba6f3f3 : object
  6690dba7fd10261c011171fe : object
  618e18ce74f85a27f952dc2d : object
  670fd1f9191bd97c6888ac14 : object
  6704fdf23d686a58dde29820 : object
  66c7845b5858efcd9bee5b2d : object
  618b8d8ecf12270d003549d4 : object
  62a326df9b3b212aedb9737b : object
  64e7244131d8d96630885b77 : object
  61765831b95cf93d546ef368 : object
  64ac048d2480c2870856050c : object
  65dc71903c091cada390857a : object
  65f845459daf9751ef9aba3d : object
  660fdb4ec8b2c9c00c4fe72a : object
  673486446bf49d297b85c55e : object
  67379f9fb040898c8605ac25 : object
  67379fefa75bf98c984a4cb2 : object
  6737a04c1ee4ea8c8533f289 : object
  677d90a21f5bb3287c2ed95f : object
  678e445daf9357d900a4fbf1 : object
  679770d271ed88dad93c98e8 : object
  67977207217269dac295af85 : object
  67beb5f0624120e404e29bca : object
  67cea11e6e95d71687aec38b : object
  67d094939a5027faae5f7032 : object
}

entity "618b5c42cf12270d003549b4" as 618b5c42cf12270d003549b4 {
  Senior Client : object
  Operator Group : object
  Operator : object
}

entity "Senior Client" as Senior_Client {
  overdue : int
  pending : int
  completed : int
}

entity "Operator Group" as Operator_Group {
  overdue : int
  pending : int
  completed : int
}

entity "Operator" as Operator {
  overdue : int
  pending : int
  completed : int
}

entity "62136d7fc435773ec77ec4fc" as 62136d7fc435773ec77ec4fc {
  Operator Group : object
  Service Head : object
  Senior Client : object
  Operator : object
  Maintenance In-Charge : object
}

entity "Service Head" as Service_Head {
  overdue : int
  pending : int
  completed : int
}

entity "Maintenance In Charge" as Maintenance_In_Charge {
  overdue : int
  pending : int
  completed : int
}

entity "620cf68a15f5530706eef968" as 620cf68a15f5530706eef968 {
  Operator Group : object
  Senior Client : object
  Operator : object
}

entity "618b8d07cf12270d003549d2" as 618b8d07cf12270d003549d2 {
  Operator Group : object
  Senior Client : object
  Operator : object
}

entity "62d6901b3eb0cb08a16a73cf" as 62d6901b3eb0cb08a16a73cf {
  Senior Client : object
  Operator Group : object
  Operator : object
}

entity "62a075f5717043068c8fc65b" as 62a075f5717043068c8fc65b {
  Senior Client : object
  Operator Group : object
  Operator : object
}

entity "62c7d90fe88eb11e6362b33c" as 62c7d90fe88eb11e6362b33c {
  Operator Group : object
  Operator : object
}

entity "63838168547b8c18e1a3b7c1" as 63838168547b8c18e1a3b7c1 {
  Building Level Client : object
  Operator Group : object
  Operator : object
}

entity "Building Level Client" as Building_Level_Client {
  overdue : int
  pending : int
  completed : int
}

entity "63838083547b8c18e1a3b7bd" as 63838083547b8c18e1a3b7bd {
  Senior Client : object
  Operator Group : object
  Operator : object
}

entity "63dbaed0a09252522dd4339c" as 63dbaed0a09252522dd4339c {
  Operator Group : object
  Operator : object
}

entity "642a6e5439658f0a6001e518" as 642a6e5439658f0a6001e518 {
  Operator Group : object
  Operator : object
}

entity "63f35c923ffd5468072efaa2" as 63f35c923ffd5468072efaa2 {
  Operator Group : object
  Operator : object
}

entity "64510316bf14bbb5792b53c9" as 64510316bf14bbb5792b53c9 {
  Operator : object
  Operator Group : object
}

entity "64882501bf14bbb5792ba997" as 64882501bf14bbb5792ba997 {
  Operator Group : object
  Operator : object
}

entity "64a2cff6e559d86c2309530e" as 64a2cff6e559d86c2309530e {
  Operator Group : object
  Operator : object
}

entity "647054b7bf14bbb5792b8bf6" as 647054b7bf14bbb5792b8bf6 {
  Operator Group : object
  Operator : object
}

entity "64818018bf14bbb5792ba0f7" as 64818018bf14bbb5792ba0f7 {
  Operator Group : object
  Operator : object
}

entity "6539fa4df16f206464740b28" as 6539fa4df16f206464740b28 {
  Operator Group : object
  Operator : object
}

entity "6594fba34df1e220fc2672f4" as 6594fba34df1e220fc2672f4 {
  Operator Group : object
  Operator : object
}

entity "65dc71673c091cada3908577" as 65dc71673c091cada3908577 {
  Operator Group : object
  Operator : object
}

entity "65d4e5103c091cada390794a" as 65d4e5103c091cada390794a {
  Operator Group : object
  Operator : object
}

entity "65e16b443c091cada3908c79" as 65e16b443c091cada3908c79 {
  Operator Group : object
  Operator : object
}

entity "658efc6fbb92db04c79528f9" as 658efc6fbb92db04c79528f9 {
  Operator Group : object
  Operator : object
}

entity "65e7590fd75a9de074f43ef2" as 65e7590fd75a9de074f43ef2 {
  Operator Group : object
  Operator : object
}

entity "65eb3a5cd75a9de074f442ab" as 65eb3a5cd75a9de074f442ab {
  Operator Group : object
  Operator : object
}

entity "65c0ab709d70ba04190e07ca" as 65c0ab709d70ba04190e07ca {
  Operator Group : object
  Operator : object
}

entity "65c1fe789d70ba04190e0bcd" as 65c1fe789d70ba04190e0bcd {
  Operator Group : object
  Operator : object
}

entity "66151539c8b2c9c00c4fee68" as 66151539c8b2c9c00c4fee68 {
  Operator Group : object
}

entity "65fc6984959a296577a79cb3" as 65fc6984959a296577a79cb3 {
  Operator Group : object
  Operator : object
}

entity "660fa001c8b2c9c00c4fe6a2" as 660fa001c8b2c9c00c4fe6a2 {
  Operator Group : object
  Operator : object
}

entity "6623022625ff8fcc86dc317f" as 6623022625ff8fcc86dc317f {
  Operator Group : object
  Operator : object
}

entity "661190c5c8b2c9c00c4fea0f" as 661190c5c8b2c9c00c4fea0f {
  Operator Group : object
  Operator : object
}

entity "65abb782ca86713f28b82429" as 65abb782ca86713f28b82429 {
  Operator Group : object
  Operator : object
}

entity "647adf30bf14bbb5792b98a1" as 647adf30bf14bbb5792b98a1 {
  Operator Group : object
  Operator : object
}

entity "65a0d52eca86713f28b8182d" as 65a0d52eca86713f28b8182d {
  Operator Group : object
  Operator : object
}

entity "663c7feec09cc51adba6ead6" as 663c7feec09cc51adba6ead6 {
  Operator Group : object
  Operator : object
}

entity "662a4e1f6f629e887f2c2826" as 662a4e1f6f629e887f2c2826 {
  Operator Group : object
  Operator : object
}

entity "66824494b7c8afc6677f3d81" as 66824494b7c8afc6677f3d81 {
  Operator Group : object
  Operator : object
}

entity "617657efb95cf93d546ef364" as 617657efb95cf93d546ef364 {
  Operator Group : object
  Operator : object
}

entity "6328165c48b60c2d9c3ac3c1" as 6328165c48b60c2d9c3ac3c1 {
  Operator Group : object
  Operator : object
}

entity "6641c6d9c09cc51adba6f3c3" as 6641c6d9c09cc51adba6f3c3 {
  Operator Group : object
}

entity "6641d159c09cc51adba6f3f3" as 6641d159c09cc51adba6f3f3 {
  Operator Group : object
}

entity "6690dba7fd10261c011171fe" as 6690dba7fd10261c011171fe {
  Operator Group : object
  Operator : object
}

entity "618e18ce74f85a27f952dc2d" as 618e18ce74f85a27f952dc2d {
  Operator Group : object
  Operator : object
}

entity "670fd1f9191bd97c6888ac14" as 670fd1f9191bd97c6888ac14 {
  Operator Group : object
  Operator : object
}

entity "6704fdf23d686a58dde29820" as 6704fdf23d686a58dde29820 {
  Operator : object
}

entity "66c7845b5858efcd9bee5b2d" as 66c7845b5858efcd9bee5b2d {
  Operator : object
}

entity "618b8d8ecf12270d003549d4" as 618b8d8ecf12270d003549d4 {
  Operator : object
}

entity "62a326df9b3b212aedb9737b" as 62a326df9b3b212aedb9737b {
  Operator : object
}

entity "64e7244131d8d96630885b77" as 64e7244131d8d96630885b77 {
  Operator : object
}

entity "61765831b95cf93d546ef368" as 61765831b95cf93d546ef368 {
  Operator : object
}

entity "64ac048d2480c2870856050c" as 64ac048d2480c2870856050c {
  Operator : object
}

entity "65dc71903c091cada390857a" as 65dc71903c091cada390857a {
  Operator : object
}

entity "65f845459daf9751ef9aba3d" as 65f845459daf9751ef9aba3d {
  Operator : object
}

entity "660fdb4ec8b2c9c00c4fe72a" as 660fdb4ec8b2c9c00c4fe72a {
  Operator : object
}

entity "673486446bf49d297b85c55e" as 673486446bf49d297b85c55e {
  Operator : object
  Operator Group : object
}

entity "67379f9fb040898c8605ac25" as 67379f9fb040898c8605ac25 {
  Operator : object
  Operator Group : object
}

entity "67379fefa75bf98c984a4cb2" as 67379fefa75bf98c984a4cb2 {
  Operator : object
  Operator Group : object
}

entity "6737a04c1ee4ea8c8533f289" as 6737a04c1ee4ea8c8533f289 {
  Operator : object
}

entity "677d90a21f5bb3287c2ed95f" as 677d90a21f5bb3287c2ed95f {
  Operator Group : object
  Operator : object
}

entity "678e445daf9357d900a4fbf1" as 678e445daf9357d900a4fbf1 {
  Operator Group : object
  Operator : object
}

entity "679770d271ed88dad93c98e8" as 679770d271ed88dad93c98e8 {
  Operator Group : object
  Operator : object
}

entity "67977207217269dac295af85" as 67977207217269dac295af85 {
  Operator Group : object
}

entity "67beb5f0624120e404e29bca" as 67beb5f0624120e404e29bca {
  Operator Group : object
  Operator : object
}

entity "67cea11e6e95d71687aec38b" as 67cea11e6e95d71687aec38b {
  Operator Group : object
  Operator : object
}

entity "67d094939a5027faae5f7032" as 67d094939a5027faae5f7032 {
  Operator : object
  Operator Group : object
}


' Relationships
taskCounts ||--|| count : has_count
count ||--|| 618b5c42cf12270d003549b4 : has_618b5c42cf12270d003549b4
618b5c42cf12270d003549b4 ||--|| Senior_Client : has_Senior Client
618b5c42cf12270d003549b4 ||--|| Operator_Group : has_Operator Group
618b5c42cf12270d003549b4 ||--|| Operator : has_Operator
count ||--|| 62136d7fc435773ec77ec4fc : has_62136d7fc435773ec77ec4fc
62136d7fc435773ec77ec4fc ||--|| Operator_Group : has_Operator Group
62136d7fc435773ec77ec4fc ||--|| Service_Head : has_Service Head
62136d7fc435773ec77ec4fc ||--|| Senior_Client : has_Senior Client
62136d7fc435773ec77ec4fc ||--|| Operator : has_Operator
62136d7fc435773ec77ec4fc ||--|| Maintenance_In_Charge : has_Maintenance In-Charge
count ||--|| 620cf68a15f5530706eef968 : has_620cf68a15f5530706eef968
620cf68a15f5530706eef968 ||--|| Operator_Group : has_Operator Group
620cf68a15f5530706eef968 ||--|| Senior_Client : has_Senior Client
620cf68a15f5530706eef968 ||--|| Operator : has_Operator
count ||--|| 618b8d07cf12270d003549d2 : has_618b8d07cf12270d003549d2
618b8d07cf12270d003549d2 ||--|| Operator_Group : has_Operator Group
618b8d07cf12270d003549d2 ||--|| Senior_Client : has_Senior Client
618b8d07cf12270d003549d2 ||--|| Operator : has_Operator
count ||--|| 62d6901b3eb0cb08a16a73cf : has_62d6901b3eb0cb08a16a73cf
62d6901b3eb0cb08a16a73cf ||--|| Senior_Client : has_Senior Client
62d6901b3eb0cb08a16a73cf ||--|| Operator_Group : has_Operator Group
62d6901b3eb0cb08a16a73cf ||--|| Operator : has_Operator
count ||--|| 62a075f5717043068c8fc65b : has_62a075f5717043068c8fc65b
62a075f5717043068c8fc65b ||--|| Senior_Client : has_Senior Client
62a075f5717043068c8fc65b ||--|| Operator_Group : has_Operator Group
62a075f5717043068c8fc65b ||--|| Operator : has_Operator
count ||--|| 62c7d90fe88eb11e6362b33c : has_62c7d90fe88eb11e6362b33c
62c7d90fe88eb11e6362b33c ||--|| Operator_Group : has_Operator Group
62c7d90fe88eb11e6362b33c ||--|| Operator : has_Operator
count ||--|| 63838168547b8c18e1a3b7c1 : has_63838168547b8c18e1a3b7c1
63838168547b8c18e1a3b7c1 ||--|| Building_Level_Client : has_Building Level Client
63838168547b8c18e1a3b7c1 ||--|| Operator_Group : has_Operator Group
63838168547b8c18e1a3b7c1 ||--|| Operator : has_Operator
count ||--|| 63838083547b8c18e1a3b7bd : has_63838083547b8c18e1a3b7bd
63838083547b8c18e1a3b7bd ||--|| Senior_Client : has_Senior Client
63838083547b8c18e1a3b7bd ||--|| Operator_Group : has_Operator Group
63838083547b8c18e1a3b7bd ||--|| Operator : has_Operator
count ||--|| 63dbaed0a09252522dd4339c : has_63dbaed0a09252522dd4339c
63dbaed0a09252522dd4339c ||--|| Operator_Group : has_Operator Group
63dbaed0a09252522dd4339c ||--|| Operator : has_Operator
count ||--|| 642a6e5439658f0a6001e518 : has_642a6e5439658f0a6001e518
642a6e5439658f0a6001e518 ||--|| Operator_Group : has_Operator Group
642a6e5439658f0a6001e518 ||--|| Operator : has_Operator
count ||--|| 63f35c923ffd5468072efaa2 : has_63f35c923ffd5468072efaa2
63f35c923ffd5468072efaa2 ||--|| Operator_Group : has_Operator Group
63f35c923ffd5468072efaa2 ||--|| Operator : has_Operator
count ||--|| 64510316bf14bbb5792b53c9 : has_64510316bf14bbb5792b53c9
64510316bf14bbb5792b53c9 ||--|| Operator : has_Operator
64510316bf14bbb5792b53c9 ||--|| Operator_Group : has_Operator Group
count ||--|| 64882501bf14bbb5792ba997 : has_64882501bf14bbb5792ba997
64882501bf14bbb5792ba997 ||--|| Operator_Group : has_Operator Group
64882501bf14bbb5792ba997 ||--|| Operator : has_Operator
count ||--|| 64a2cff6e559d86c2309530e : has_64a2cff6e559d86c2309530e
64a2cff6e559d86c2309530e ||--|| Operator_Group : has_Operator Group
64a2cff6e559d86c2309530e ||--|| Operator : has_Operator
count ||--|| 647054b7bf14bbb5792b8bf6 : has_647054b7bf14bbb5792b8bf6
647054b7bf14bbb5792b8bf6 ||--|| Operator_Group : has_Operator Group
647054b7bf14bbb5792b8bf6 ||--|| Operator : has_Operator
count ||--|| 64818018bf14bbb5792ba0f7 : has_64818018bf14bbb5792ba0f7
64818018bf14bbb5792ba0f7 ||--|| Operator_Group : has_Operator Group
64818018bf14bbb5792ba0f7 ||--|| Operator : has_Operator
count ||--|| 6539fa4df16f206464740b28 : has_6539fa4df16f206464740b28
6539fa4df16f206464740b28 ||--|| Operator_Group : has_Operator Group
6539fa4df16f206464740b28 ||--|| Operator : has_Operator
count ||--|| 6594fba34df1e220fc2672f4 : has_6594fba34df1e220fc2672f4
6594fba34df1e220fc2672f4 ||--|| Operator_Group : has_Operator Group
6594fba34df1e220fc2672f4 ||--|| Operator : has_Operator
count ||--|| 65dc71673c091cada3908577 : has_65dc71673c091cada3908577
65dc71673c091cada3908577 ||--|| Operator_Group : has_Operator Group
65dc71673c091cada3908577 ||--|| Operator : has_Operator
count ||--|| 65d4e5103c091cada390794a : has_65d4e5103c091cada390794a
65d4e5103c091cada390794a ||--|| Operator_Group : has_Operator Group
65d4e5103c091cada390794a ||--|| Operator : has_Operator
count ||--|| 65e16b443c091cada3908c79 : has_65e16b443c091cada3908c79
65e16b443c091cada3908c79 ||--|| Operator_Group : has_Operator Group
65e16b443c091cada3908c79 ||--|| Operator : has_Operator
count ||--|| 658efc6fbb92db04c79528f9 : has_658efc6fbb92db04c79528f9
658efc6fbb92db04c79528f9 ||--|| Operator_Group : has_Operator Group
658efc6fbb92db04c79528f9 ||--|| Operator : has_Operator
count ||--|| 65e7590fd75a9de074f43ef2 : has_65e7590fd75a9de074f43ef2
65e7590fd75a9de074f43ef2 ||--|| Operator_Group : has_Operator Group
65e7590fd75a9de074f43ef2 ||--|| Operator : has_Operator
count ||--|| 65eb3a5cd75a9de074f442ab : has_65eb3a5cd75a9de074f442ab
65eb3a5cd75a9de074f442ab ||--|| Operator_Group : has_Operator Group
65eb3a5cd75a9de074f442ab ||--|| Operator : has_Operator
count ||--|| 65c0ab709d70ba04190e07ca : has_65c0ab709d70ba04190e07ca
65c0ab709d70ba04190e07ca ||--|| Operator_Group : has_Operator Group
65c0ab709d70ba04190e07ca ||--|| Operator : has_Operator
count ||--|| 65c1fe789d70ba04190e0bcd : has_65c1fe789d70ba04190e0bcd
65c1fe789d70ba04190e0bcd ||--|| Operator_Group : has_Operator Group
65c1fe789d70ba04190e0bcd ||--|| Operator : has_Operator
count ||--|| 66151539c8b2c9c00c4fee68 : has_66151539c8b2c9c00c4fee68
66151539c8b2c9c00c4fee68 ||--|| Operator_Group : has_Operator Group
count ||--|| 65fc6984959a296577a79cb3 : has_65fc6984959a296577a79cb3
65fc6984959a296577a79cb3 ||--|| Operator_Group : has_Operator Group
65fc6984959a296577a79cb3 ||--|| Operator : has_Operator
count ||--|| 660fa001c8b2c9c00c4fe6a2 : has_660fa001c8b2c9c00c4fe6a2
660fa001c8b2c9c00c4fe6a2 ||--|| Operator_Group : has_Operator Group
660fa001c8b2c9c00c4fe6a2 ||--|| Operator : has_Operator
count ||--|| 6623022625ff8fcc86dc317f : has_6623022625ff8fcc86dc317f
6623022625ff8fcc86dc317f ||--|| Operator_Group : has_Operator Group
6623022625ff8fcc86dc317f ||--|| Operator : has_Operator
count ||--|| 661190c5c8b2c9c00c4fea0f : has_661190c5c8b2c9c00c4fea0f
661190c5c8b2c9c00c4fea0f ||--|| Operator_Group : has_Operator Group
661190c5c8b2c9c00c4fea0f ||--|| Operator : has_Operator
count ||--|| 65abb782ca86713f28b82429 : has_65abb782ca86713f28b82429
65abb782ca86713f28b82429 ||--|| Operator_Group : has_Operator Group
65abb782ca86713f28b82429 ||--|| Operator : has_Operator
count ||--|| 647adf30bf14bbb5792b98a1 : has_647adf30bf14bbb5792b98a1
647adf30bf14bbb5792b98a1 ||--|| Operator_Group : has_Operator Group
647adf30bf14bbb5792b98a1 ||--|| Operator : has_Operator
count ||--|| 65a0d52eca86713f28b8182d : has_65a0d52eca86713f28b8182d
65a0d52eca86713f28b8182d ||--|| Operator_Group : has_Operator Group
65a0d52eca86713f28b8182d ||--|| Operator : has_Operator
count ||--|| 663c7feec09cc51adba6ead6 : has_663c7feec09cc51adba6ead6
663c7feec09cc51adba6ead6 ||--|| Operator_Group : has_Operator Group
663c7feec09cc51adba6ead6 ||--|| Operator : has_Operator
count ||--|| 662a4e1f6f629e887f2c2826 : has_662a4e1f6f629e887f2c2826
662a4e1f6f629e887f2c2826 ||--|| Operator_Group : has_Operator Group
662a4e1f6f629e887f2c2826 ||--|| Operator : has_Operator
count ||--|| 66824494b7c8afc6677f3d81 : has_66824494b7c8afc6677f3d81
66824494b7c8afc6677f3d81 ||--|| Operator_Group : has_Operator Group
66824494b7c8afc6677f3d81 ||--|| Operator : has_Operator
count ||--|| 617657efb95cf93d546ef364 : has_617657efb95cf93d546ef364
617657efb95cf93d546ef364 ||--|| Operator_Group : has_Operator Group
617657efb95cf93d546ef364 ||--|| Operator : has_Operator
count ||--|| 6328165c48b60c2d9c3ac3c1 : has_6328165c48b60c2d9c3ac3c1
6328165c48b60c2d9c3ac3c1 ||--|| Operator_Group : has_Operator Group
6328165c48b60c2d9c3ac3c1 ||--|| Operator : has_Operator
count ||--|| 6641c6d9c09cc51adba6f3c3 : has_6641c6d9c09cc51adba6f3c3
6641c6d9c09cc51adba6f3c3 ||--|| Operator_Group : has_Operator Group
count ||--|| 6641d159c09cc51adba6f3f3 : has_6641d159c09cc51adba6f3f3
6641d159c09cc51adba6f3f3 ||--|| Operator_Group : has_Operator Group
count ||--|| 6690dba7fd10261c011171fe : has_6690dba7fd10261c011171fe
6690dba7fd10261c011171fe ||--|| Operator_Group : has_Operator Group
6690dba7fd10261c011171fe ||--|| Operator : has_Operator
count ||--|| 618e18ce74f85a27f952dc2d : has_618e18ce74f85a27f952dc2d
618e18ce74f85a27f952dc2d ||--|| Operator_Group : has_Operator Group
618e18ce74f85a27f952dc2d ||--|| Operator : has_Operator
count ||--|| 670fd1f9191bd97c6888ac14 : has_670fd1f9191bd97c6888ac14
670fd1f9191bd97c6888ac14 ||--|| Operator_Group : has_Operator Group
670fd1f9191bd97c6888ac14 ||--|| Operator : has_Operator
count ||--|| 6704fdf23d686a58dde29820 : has_6704fdf23d686a58dde29820
6704fdf23d686a58dde29820 ||--|| Operator : has_Operator
count ||--|| 66c7845b5858efcd9bee5b2d : has_66c7845b5858efcd9bee5b2d
66c7845b5858efcd9bee5b2d ||--|| Operator : has_Operator
count ||--|| 618b8d8ecf12270d003549d4 : has_618b8d8ecf12270d003549d4
618b8d8ecf12270d003549d4 ||--|| Operator : has_Operator
count ||--|| 62a326df9b3b212aedb9737b : has_62a326df9b3b212aedb9737b
62a326df9b3b212aedb9737b ||--|| Operator : has_Operator
count ||--|| 64e7244131d8d96630885b77 : has_64e7244131d8d96630885b77
64e7244131d8d96630885b77 ||--|| Operator : has_Operator
count ||--|| 61765831b95cf93d546ef368 : has_61765831b95cf93d546ef368
61765831b95cf93d546ef368 ||--|| Operator : has_Operator
count ||--|| 64ac048d2480c2870856050c : has_64ac048d2480c2870856050c
64ac048d2480c2870856050c ||--|| Operator : has_Operator
count ||--|| 65dc71903c091cada390857a : has_65dc71903c091cada390857a
65dc71903c091cada390857a ||--|| Operator : has_Operator
count ||--|| 65f845459daf9751ef9aba3d : has_65f845459daf9751ef9aba3d
65f845459daf9751ef9aba3d ||--|| Operator : has_Operator
count ||--|| 660fdb4ec8b2c9c00c4fe72a : has_660fdb4ec8b2c9c00c4fe72a
660fdb4ec8b2c9c00c4fe72a ||--|| Operator : has_Operator
count ||--|| 673486446bf49d297b85c55e : has_673486446bf49d297b85c55e
673486446bf49d297b85c55e ||--|| Operator : has_Operator
673486446bf49d297b85c55e ||--|| Operator_Group : has_Operator Group
count ||--|| 67379f9fb040898c8605ac25 : has_67379f9fb040898c8605ac25
67379f9fb040898c8605ac25 ||--|| Operator : has_Operator
67379f9fb040898c8605ac25 ||--|| Operator_Group : has_Operator Group
count ||--|| 67379fefa75bf98c984a4cb2 : has_67379fefa75bf98c984a4cb2
67379fefa75bf98c984a4cb2 ||--|| Operator : has_Operator
67379fefa75bf98c984a4cb2 ||--|| Operator_Group : has_Operator Group
count ||--|| 6737a04c1ee4ea8c8533f289 : has_6737a04c1ee4ea8c8533f289
6737a04c1ee4ea8c8533f289 ||--|| Operator : has_Operator
count ||--|| 677d90a21f5bb3287c2ed95f : has_677d90a21f5bb3287c2ed95f
677d90a21f5bb3287c2ed95f ||--|| Operator_Group : has_Operator Group
677d90a21f5bb3287c2ed95f ||--|| Operator : has_Operator
count ||--|| 678e445daf9357d900a4fbf1 : has_678e445daf9357d900a4fbf1
678e445daf9357d900a4fbf1 ||--|| Operator_Group : has_Operator Group
678e445daf9357d900a4fbf1 ||--|| Operator : has_Operator
count ||--|| 679770d271ed88dad93c98e8 : has_679770d271ed88dad93c98e8
679770d271ed88dad93c98e8 ||--|| Operator_Group : has_Operator Group
679770d271ed88dad93c98e8 ||--|| Operator : has_Operator
count ||--|| 67977207217269dac295af85 : has_67977207217269dac295af85
67977207217269dac295af85 ||--|| Operator_Group : has_Operator Group
count ||--|| 67beb5f0624120e404e29bca : has_67beb5f0624120e404e29bca
67beb5f0624120e404e29bca ||--|| Operator_Group : has_Operator Group
67beb5f0624120e404e29bca ||--|| Operator : has_Operator
count ||--|| 67cea11e6e95d71687aec38b : has_67cea11e6e95d71687aec38b
67cea11e6e95d71687aec38b ||--|| Operator_Group : has_Operator Group
67cea11e6e95d71687aec38b ||--|| Operator : has_Operator
count ||--|| 67d094939a5027faae5f7032 : has_67d094939a5027faae5f7032
67d094939a5027faae5f7032 ||--|| Operator : has_Operator
67d094939a5027faae5f7032 ||--|| Operator_Group : has_Operator Group
@enduml