@startuml tickets_618e18ce74f85a27f952dc2d_Diagram

entity "tickets 618e18ce74f85a27f952dc2d" as tickets_618e18ce74f85a27f952dc2d {
  _id : ObjectId
  plantId : ObjectId
  alertId : ObjectId
  dueTimeFromPosting : string
  observationFreq : unknown
  escalations : object
  createdAt : object
  isOpen : boolean
  openingInfo : object
  closingInfo : object
  attachedSolutions : list
  events : list
}

entity "escalations" as escalations {
  Level 1 : object
  Level 2 : object
  Level 3 : object
}

entity "Level 1" as Level_1 {
  time : string
  group : string
}

entity "Level 2" as Level_2 {
  time : string
  group : string
}

entity "Level 3" as Level_3 {
  time : string
  group : string
}

entity "createdAt" as createdAt {
}

entity "openingInfo" as openingInfo {
  openedAt : object
  openedBy : ObjectId
}

entity "openedAt" as openedAt {
}

entity "closingInfo" as closingInfo {
  closedAt : string
  closedBy : string
}

entity "events" as events {
  event : string
  message : string
  time : object
}

entity "time" as time {
}

' // Relationships
tickets_618e18ce74f85a27f952dc2d ||--|| escalations : has_escalations
escalations ||--|| Level_1 : has_Level 1
escalations ||--|| Level_2 : has_Level 2
escalations ||--|| Level_3 : has_Level 3
tickets_618e18ce74f85a27f952dc2d ||--|| createdAt : has_createdAt
tickets_618e18ce74f85a27f952dc2d ||--|| openingInfo : has_openingInfo
openingInfo ||--|| openedAt : has_openedAt
tickets_618e18ce74f85a27f952dc2d ||--|| closingInfo : has_closingInfo
tickets_618e18ce74f85a27f952dc2d ||--o{ events : has_events
events ||--|| time : has_time
@enduml